<?xml version="1.0" encoding="utf-8"?>
<!-- Generator: Adobe Illustrator 25.2.0, SVG Export Plug-In . SVG Version: 6.00 Build 0)  -->
<svg version="1.1" id="Calque_1" focusable="false" xmlns="http://www.w3.org/2000/svg" xmlns:xlink="http://www.w3.org/1999/xlink"
	 x="0px" y="0px" viewBox="0 0 448 649" style="enable-background:new 0 0 448 649;" xml:space="preserve">
<path fill="hsl(272, 100%, 60%)"
	  d="M241,199l194.3,194.3c9.4,9.4,9.4,24.6,0,33.9l-22.7,22.7c-9.4,9.4-24.5,9.4-33.9,0L224,296L69.3,450
	c-9.4,9.3-24.5,9.3-33.9,0l-22.7-22.7c-9.4-9.4-9.4-24.6,0-33.9L207,199C216.4,189.7,231.6,189.7,241,199z M207,391L12.7,585.4
	c-9.4,9.4-9.4,24.6,0,33.9L35.4,642c9.4,9.4,24.5,9.4,33.9,0L224,488l154.7,154c9.4,9.3,24.5,9.3,33.9,0l22.7-22.7
	c9.4-9.4,9.4-24.6,0-33.9L241,391C231.6,381.7,216.4,381.7,207,391z M241,7l194.3,194.3c9.4,9.4,9.4,24.6,0,33.9l-22.7,22.7
	c-9.4,9.4-24.5,9.4-33.9,0L224,104L69.3,258c-9.4,9.3-24.5,9.3-33.9,0l-22.7-22.7c-9.4-9.4-9.4-24.6,0-33.9L207,7
	C216.4-2.3,231.6-2.3,241,7z"/>
</svg>
