<?xml version="1.0" encoding="utf-8"?>
<!-- Generator: Adobe Illustrator 25.2.0, SVG Export Plug-In . SVG Version: 6.00 Build 0)  -->
<svg version="1.1" id="Calque_1" focusable="false" xmlns="http://www.w3.org/2000/svg" xmlns:xlink="http://www.w3.org/1999/xlink"
	 x="0px" y="0px" viewBox="0 0 448 649" style="enable-background:new 0 0 448 649;" xml:space="preserve">
<path fill="hsl(272, 100%, 60%)"
	  d="M207,450L12.7,255.8c-9.4-9.4-9.4-24.6,0-33.9l22.7-22.7c9.4-9.4,24.5-9.4,33.9,0L224,353l154.7-154
	c9.4-9.3,24.5-9.3,33.9,0l22.7,22.7c9.4,9.4,9.4,24.6,0,33.9L241,450C231.6,459.4,216.4,459.4,207,450z M241,258L435.3,63.7
	c9.4-9.4,9.4-24.6,0-33.9L412.6,7c-9.4-9.4-24.5-9.4-33.9,0L224,161L69.3,7c-9.4-9.3-24.5-9.3-33.9,0L12.7,29.8
	c-9.4,9.4-9.4,24.6,0,33.9L207,258C216.4,267.4,231.6,267.4,241,258z M207,642L12.7,447.8c-9.4-9.4-9.4-24.6,0-33.9l22.7-22.7
	c9.4-9.4,24.5-9.4,33.9,0L224,545l154.7-154c9.4-9.3,24.5-9.3,33.9,0l22.7,22.7c9.4,9.4,9.4,24.6,0,33.9L241,642
	C231.6,651.3,216.4,651.3,207,642z"/>
</svg>
