<?xml version="1.0" encoding="utf-8"?>
<!-- Generator: Adobe Illustrator 25.2.0, SVG Export Plug-In . SVG Version: 6.00 Build 0)  -->
<svg version="1.1" id="Calque_1" focusable="false" xmlns="http://www.w3.org/2000/svg" xmlns:xlink="http://www.w3.org/1999/xlink"
	 x="0px" y="0px" viewBox="0 0 448 512" style="enable-background:new 0 0 448 512;" xml:space="preserve">
<path fill="hsl(272, 100%, 60%)"
	  d="M207,477.6L12.7,283.3c-9.4-9.4-9.4-24.6,0-33.9l22.7-22.7c9.4-9.4,24.5-9.4,33.9,0L224,380.6l154.7-154
	c9.4-9.3,24.5-9.3,33.9,0l22.7,22.7c9.4,9.4,9.4,24.6,0,33.9L241,477.6C231.6,486.9,216.4,486.9,207,477.6z M241,285.6L435.3,91.2
	c9.4-9.4,9.4-24.6,0-33.9l-22.7-22.7c-9.4-9.4-24.5-9.4-33.9,0L224,188.6L69.3,34.6c-9.4-9.3-24.5-9.3-33.9,0L12.7,57.3
	c-9.4,9.4-9.4,24.6,0,33.9L207,285.6C216.4,294.9,231.6,294.9,241,285.6z"/>
</svg>
