<?xml version="1.0" encoding="utf-8"?>
<!-- Generator: Adobe Illustrator 25.2.0, SVG Export Plug-In . SVG Version: 6.00 Build 0)  -->
<svg version="1.1" id="Calque_1" focusable="false" xmlns="http://www.w3.org/2000/svg" xmlns:xlink="http://www.w3.org/1999/xlink"
	 x="0px" y="0px" viewBox="0 0 1081.5 512" style="enable-background:new 0 0 1081.5 512;" xml:space="preserve">
<path fill="hsl(36, 100%, 50%)"
      d="M68.2,256h279.5c23.5,0,41-19.8,35.1-40c-20-69-90.5-152-174.5-152h-0.8c-83.9,0-154.4,83-174.4,152
	C27.3,236.2,44.7,256,68.2,256z M552.3,137.2l-48.6-34.8c-35.2-17.4-80.5,1.6-86.8,40.3c-0.5,3.3-0.8,6.7-0.8,10.2v71.2
	c0,13.9-4.6,27.2-13.3,38.4c-12.4,16.1-31.2,25.3-51.7,25.3H18.6C8.3,288,0,296.3,0,306.6c0,8,5.1,15.1,12.7,17.6l98.3,22.1
	L66.2,424c-6.2,10.7,1.5,24,13.9,24H117c5.7,0,11-3,13.9-8l40.3-69.8c26,8.5,45.6,13.8,84.9,13.8s58.9-5.3,84.9-13.8l40.3,69.8
	c2.9,5,8.1,8,13.9,8h37c12.3,0,20-13.3,13.9-24l-47.2-81.8c21.2-8.4,40.4-21.8,54.8-40.5c14.1-18.3,22.5-39.4,25.3-61.7h40.6
	c31.3,0,56.7-25.4,56.7-56.7C576,165.1,567.2,147.9,552.3,137.2L552.3,137.2z M480,176c-8.8,0-16-7.2-16-16s7.2-16,16-16
	s16,7.2,16,16S488.8,176,480,176z"/>
<path fill="hsl(36, 100%, 50%)"
      d="M573.8,256h279.5c23.5,0,41-19.8,35.1-40c-20-69-90.5-152-174.4-152h-0.8c-83.9,0-154.4,83-174.4,152
	C532.8,236.2,550.2,256,573.8,256z M1057.8,137.2l-48.7-34.8c-35.2-17.4-80.5,1.6-86.8,40.3c-0.5,3.3-0.8,6.7-0.8,10.2v71.2
	c0,13.9-4.6,27.2-13.3,38.4C895.8,278.8,877,288,856.6,288H524.1c-10.3,0-18.6,8.3-18.6,18.6c0,8,5.1,15.1,12.7,17.6l98.3,22.1
	L571.7,424c-6.2,10.7,1.5,24,13.9,24h36.9c5.7,0,11-3,13.9-8l40.3-69.8c26,8.5,45.5,13.8,84.9,13.8s58.9-5.3,84.9-13.8l40.3,69.8
	c2.9,5,8.1,8,13.9,8h37c12.3,0,20-13.3,13.9-24l-47.2-81.8c21.2-8.4,40.4-21.8,54.8-40.5c14.1-18.3,22.5-39.4,25.3-61.7h40.6
	c31.3,0,56.7-25.4,56.7-56.7C1081.5,165.1,1072.7,147.9,1057.8,137.2L1057.8,137.2z M985.5,176c-8.8,0-16-7.2-16-16s7.2-16,16-16
	s16,7.2,16,16S994.3,176,985.5,176z"/>
</svg>
