<?xml version="1.0" encoding="utf-8"?>
<!-- Generator: Adobe Illustrator 25.2.0, SVG Export Plug-In . SVG Version: 6.00 Build 0)  -->
<svg version="1.1" id="Calque_1" focusable="false" xmlns="http://www.w3.org/2000/svg" xmlns:xlink="http://www.w3.org/1999/xlink"
	 x="0px" y="0px" viewBox="0 0 1116.3 512" style="enable-background:new 0 0 1116.3 512;" xml:space="preserve">
<path fill="hsl(36, 100%, 50%)"
	  d="M135.5,412.7c-4.7,2.9-7.5,8.1-7.5,13.6V464c0,12.6,13.8,20.2,24.5,13.6l66.7-39.9l-47.8-47.9L135.5,412.7z M552.3,217.3
	l-56.4-34.6c-0.1-13.9-2.3-30.8-7.1-48.7c-11.3-42.2-31.9-73.4-46-69.7s-16.3,41.1-5,83.3c0.6,2.4,1.4,4.7,2.1,7.1
	c-4.9-6.1-10.2-12.2-16.3-18.3C392.7,105.4,359.3,88.7,349,99s6.4,43.7,37.3,74.7c12.7,12.7,25.7,22.8,37.4,29.8
	c-3.1,5.8-5.7,12.1-6.9,19.3c-0.5,3-0.7,6.1-0.8,9.3C364.5,195.1,261.6,128,192,128c-52.1,0-85.2,28.2-104.7,54.1
	c-1.8-2.7-3-5.7-5.3-8c-18.8-18.8-49.1-18.8-67.9,0c-18.7,18.7-18.7,49.1,0,67.9c16.4,16.4,41.3,17.6,59.9,5.3l191.4,191.4
	c6,6,14.1,9.4,22.6,9.4h144c8.8,0,16-7.2,16-16v-16c0-17.7-14.3-32-32-32h-96v-55.6c0-35.5-23.9-67.2-58-76.9l-42.4-12.1
	c-8.5-2.4-13.4-11.3-11-19.8c2.4-8.5,11.4-13.3,19.8-11l42.4,12.1c47.8,13.7,81.2,57.9,81.2,107.7V352l64-32h103.3
	c31.3,0,56.7-25.4,56.7-56.6C576,245.1,567.2,227.9,552.3,217.3L552.3,217.3z M496,256c-8.8,0-16-7.2-16-16s7.2-16,16-16
	s16,7.2,16,16S504.8,256,496,256z"/>
<path fill="hsl(36, 100%, 50%)"
	  d="M675.9,412.7c-4.7,2.9-7.5,8.1-7.5,13.6V464c0,12.6,13.8,20.2,24.5,13.6l66.7-39.9l-47.8-47.9L675.9,412.7z M1092.6,217.3
	l-56.4-34.6c-0.1-13.9-2.3-30.8-7.1-48.7c-11.3-42.2-31.9-73.4-46-69.7c-14.1,3.8-16.3,41.1-5,83.3c0.6,2.4,1.4,4.7,2.1,7.1
	c-4.9-6.1-10.2-12.2-16.3-18.3C933,105.4,899.6,88.7,889.3,99s6.4,43.7,37.3,74.7c12.7,12.7,25.7,22.8,37.4,29.8
	c-3.1,5.8-5.7,12.1-6.9,19.3c-0.5,3-0.7,6.1-0.8,9.3C904.9,195.1,801.9,128,732.3,128c-52.1,0-85.2,28.2-104.7,54.1
	c-1.8-2.7-3-5.7-5.3-8c-18.8-18.8-49.1-18.8-67.9,0c-18.7,18.7-18.7,49.1,0,67.9c16.4,16.4,41.3,17.6,59.9,5.3l191.4,191.4
	c6,6,14.1,9.4,22.6,9.4h144c8.8,0,16-7.2,16-16v-16c0-17.7-14.3-32-32-32h-96v-55.6c0-35.5-23.9-67.2-58-76.9L760,239.4
	c-8.5-2.4-13.4-11.3-11-19.8c2.4-8.5,11.4-13.3,19.8-11l42.4,12.1c47.8,13.7,81.2,57.9,81.2,107.7V352l64-32h103.3
	c31.3,0,56.7-25.4,56.7-56.6C1116.3,245.1,1107.5,227.9,1092.6,217.3L1092.6,217.3z M1036.3,256c-8.8,0-16-7.2-16-16s7.2-16,16-16
	c8.8,0,16,7.2,16,16S1045.2,256,1036.3,256z"/>
</svg>
