<?xml version="1.0" encoding="utf-8"?>
<!-- Generator: Adobe Illustrator 25.2.0, SVG Export Plug-In . SVG Version: 6.00 Build 0)  -->
<svg version="1.1" id="Calque_1" focusable="false" xmlns="http://www.w3.org/2000/svg" xmlns:xlink="http://www.w3.org/1999/xlink"
	 x="0px" y="0px" viewBox="0 0 576 329" style="enable-background:new 0 0 576 329;" xml:space="preserve">
<path fill="hsl(156, 100%, 50%)" d="M349.6,329H467c55.5,0,105.4-41.4,108.6-96.8c1.8-30.5-10.1-60.2-32.5-81.1c9.4-17.7,13.5-37.8,11.6-57.7
	C549.9,39.3,500.3,0,445.9,0h-96.4C338.2,0,329,9.2,329,20.6v287.9C329,319.8,338.2,329,349.6,329z M401,72h51.4
	c17,0,30.8,13.8,30.8,30.8s-13.8,30.8-30.8,30.8H401V72z M401,195.3h72c17,0,30.8,13.8,30.8,30.8S490,257,472.9,257h-72V195.3z
	 M199.4,28.6C193.9,11.6,178.1,0,160.2,0h-32.5C109.8,0,94,11.6,88.5,28.6L0.8,302.9c-3,10.9,3.4,22.3,14.3,25.3
	c1.8,0.5,3.6,0.7,5.5,0.7h32c9.2,0,17.4-6.2,19.8-15.1l15.3-46.6h112.3l15.3,46.6c2.5,8.9,10.6,15.1,19.8,15.1h32
	c11.4,0,20.6-9.2,20.6-20.6c0-1.9-0.3-3.7-0.7-5.5L199.4,28.6z M114.9,185.1l29.1-88.3l29.1,88.3H114.9z"/>
</svg>
